<?xml version="1.0" standalone="no"?>

<?xml-stylesheet type="text/css" href="figure-style.css"?>

<!DOCTYPE svg PUBLIC "-//W3C//DTD SVG 1.1//EN"
  "http://www.w3.org/Graphics/SVG/1.1/DTD/svg11.dtd">

<svg viewBox="-35 -35 420 385" xmlns="http://www.w3.org/2000/svg" id="figure">
    <path d="M175 175 87.5 175 A87.5 87.5 0 0 0 175 262.5Z" class="figure__shape4"/>
    <path d="M175 175 105 175 A70 70 0 0 0 175 245Z" class="figure__shape3"/>
    <path d="M175 175 122.5 175 A52.5 52.5 0 0 0 175 227.5Z" class="figure__shape2"/>
    <path d="M175 175 140 175 A35 35 0 0 0 175 210Z" class="figure__shape1"/>
    <path d="M175 175 157.5 175 A17.5 17.5 0 0 0 175 192.5Z" class="figure__shape"/>

    <polygon points="175,175 175,0 262.5,0 262.5,175" class="figure__shape4"/>
    <polygon points="175,175 175,35 245,35 245,175" class="figure__shape3"/>
    <polygon points="175,175 175,70 227.5,70 227.5,175" class="figure__shape2"/>
    <polygon points="175,175 175,105 210,105 210,175" class="figure__shape1"/>
    <polygon points="175,175 175,140 192.5,140 192.5,175" class="figure__shape"/>
    
    <polygon points="175,175 350,175 175,350" class="figure__shape4"/>
    <polygon points="175,175 315,175 175,315" class="figure__shape3"/>
    <polygon points="175,175 280,175 175,280" class="figure__shape2"/>
    <polygon points="175,175 245,175 175,245" class="figure__shape1"/>
    <polygon points="175,175 210,175 175,210" class="figure__shape"/>

    <line x1="-35" y1="175" x2="385" y2="175" class="figure__axis"/>
    <line x1="175" y1="385" x2="175" y2="-35" class="figure__axis"/>
    
    <line y1="171" x1="0" y2="179" x2="0" class="figure__axis-dash"/>
    <line y1="171" x1="35" y2="179" x2="35" class="figure__axis-dash"/>
    <line y1="171" x1="70" y2="179" x2="70" class="figure__axis-dash"/>
    <line y1="171" x1="105" y2="179" x2="105" class="figure__axis-dash"/>
    <line y1="171" x1="140" y2="179" x2="140" class="figure__axis-dash"/>
    <line y1="171" x1="210" y2="179" x2="210" class="figure__axis-dash"/>
    <line y1="171" x1="245" y2="179" x2="245" class="figure__axis-dash"/>
    <line y1="171" x1="280" y2="179" x2="280" class="figure__axis-dash"/>
    <line y1="171" x1="315" y2="179" x2="315" class="figure__axis-dash"/>
    <line y1="171" x1="350" y2="179" x2="350" class="figure__axis-dash"/>
    
    <line x1="171" y1="0" x2="179" y2="0" class="figure__axis-dash"/>
    <line x1="171" y1="35" x2="179" y2="35" class="figure__axis-dash"/>
    <line x1="171" y1="70" x2="179" y2="70" class="figure__axis-dash"/>
    <line x1="171" y1="105" x2="179" y2="105" class="figure__axis-dash"/>
    <line x1="171" y1="140" x2="179" y2="140" class="figure__axis-dash"/>
    <line x1="171" y1="210" x2="179" y2="210" class="figure__axis-dash"/>
    <line x1="171" y1="245" x2="179" y2="245" class="figure__axis-dash"/>
    <line x1="171" y1="280" x2="179" y2="280" class="figure__axis-dash"/>
    <line x1="171" y1="315" x2="179" y2="315" class="figure__axis-dash"/>
    <line x1="171" y1="350" x2="179" y2="350" class="figure__axis-dash"/>
    
    <polygon points="385,175 370,170 370,180" class="figure__axis-arrow"/>
    <polygon points="175,-35 180,-20 170,-20" class="figure__axis-arrow"/>
    
    <text x="182" y="-24" class="figure__axis-mark">y</text>
    <text x="370" y="167" class="figure__axis-mark">x</text>
    
    <text x="130" y="167" class="figure__axis-mark">-1</text>
    <text x="160" y="145" class="figure__axis-mark">1</text>
</svg>